HIERARCHY
ROOT Hips
{
  OFFSET 0 0 0
  CHANNELS 6 Xposition Yposition Zposition Zrotation Yrotation Xrotation
  JOINT LeftThigh
  {
    OFFSET 8.409438 0 -5.917753
    CHANNELS 3 Zrotation Yrotation Xrotation
    JOINT LeftLeg
    {
      OFFSET 0 0 -42.358652
      CHANNELS 3 Zrotation Yrotation Xrotation
      JOINT LeftFoot
      {
        OFFSET 0 0 -39.357303
        CHANNELS 3 Zrotation Yrotation Xrotation
      }
    }
  }
  JOINT RightThigh
  {
    OFFSET -8.409438 0 -5.917753
    CHANNELS 3 Zrotation Yrotation Xrotation
    JOINT RightLeg
    {
      OFFSET 0 0 -42.358652
      CHANNELS 3 Zrotation Yrotation Xrotation
      JOINT RightFoot
      {
        OFFSET 0 0 -39.357303
        CHANNELS 3 Zrotation Yrotation Xrotation
      }
    }
  }
  JOINT SpineLow
  {
    OFFSET 0 0 4.719101
    CHANNELS 3 Zrotation Yrotation Xrotation
    JOINT SpineMid
    {
      OFFSET 0 0 12.899191
      CHANNELS 3 Zrotation Yrotation Xrotation
      JOINT Chest
      {
        OFFSET 0 0 12.899191
        CHANNELS 3 Zrotation Yrotation Xrotation
        JOINT LeftShoulder
        {
          OFFSET 7.550562 1.41573 9.438202
          CHANNELS 3 Zrotation Yrotation Xrotation
          JOINT LeftArm
          {
            OFFSET 9.155056 0 4.247191
            CHANNELS 3 Zrotation Yrotation Xrotation
            JOINT LeftForearm
            {
              OFFSET 0 0 25.771955
              CHANNELS 3 Zrotation Yrotation Xrotation
              JOINT LeftHand
              {
                OFFSET 0 0 25.197169
                CHANNELS 3 Zrotation Yrotation Xrotation
              }
            }
          }
        }
        JOINT RightShoulder
        {
          OFFSET -7.550562 1.41573 9.438202
          CHANNELS 3 Zrotation Yrotation Xrotation
          JOINT RightArm
          {
            OFFSET -9.155056 0 4.247191
            CHANNELS 3 Zrotation Yrotation Xrotation
            JOINT RightForearm
            {
              OFFSET 0 0 -25.771955
              CHANNELS 3 Zrotation Yrotation Xrotation
              JOINT RightHand
              {
                OFFSET 0 0 -25.197169
                CHANNELS 3 Zrotation Yrotation Xrotation
              }
            }
          }
        }
        JOINT Neck
        {
          OFFSET 0 0 15.101124
          CHANNELS 3 Zrotation Yrotation Xrotation
          JOINT Head
          {
            OFFSET 0 0 11.325843
            CHANNELS 3 Zrotation Yrotation Xrotation
            End Site
            {
              OFFSET 0 0 14.157303
            }
          }
        }
      }
    }
  }
}
MOTION
Frames: 17
Frame Time: 0.0
0.0  89.887642  0.0  0.911233  4.45068  -97.959527  -3.035458  -13.671453  -2.919183  1.46101  5.944396  27.719149  -1.785416  0.711815  1.821783  -29.151081  11.633049  -5.262872  -18.438196  12.245606  14.78269  9.903271  3.766575  -0.895563  4.62265  -1.606083  2.524311  12.472358  -4.847989  6.575059  12.472358  -4.847989  6.575059  -14.068323  0.00619  -12.992066  155.070001  36.414256  -141.203482  10.980329  -17.205151  31.047347  107.970242  -7.379503  22.495266  1.597246  -9.183072  8.656961  100.125565  28.617633  23.548241  5.976749  -27.19547  -91.878513  45.25681  -7.316967  -15.47433  -33.518069  2.002338  -2.511967  -25.128309  1.645672  -1.780115  
0.0  89.887642  0.0  1.384751  0.696502  -98.24366  -2.76722  -13.408094  -1.937135  2.202784  5.925605  27.803578  -1.48561  0.66149  1.920927  -26.795808  11.253154  -6.557578  -17.070868  12.598071  16.187873  10.004748  3.812144  -0.685092  4.668039  -1.443267  2.510272  12.61095  -4.406941  6.562856  12.610949  -4.406941  6.562856  -12.58666  -0.270564  -10.107107  162.461361  33.459713  -141.954487  6.80333  -19.744902  38.466932  105.65133  -5.54924  27.457808  1.023568  -9.865875  9.911102  98.985727  29.050819  24.254948  5.851992  -26.171591  -91.873118  47.56776  -7.49513  -16.744647  -31.700517  2.491564  -1.901811  -23.76418  1.973796  -1.300787  
0.0  89.887642  0.0  1.864246  -3.828729  -98.404892  -2.058469  -13.238496  -1.032139  3.168715  5.962612  27.876813  -1.26462  0.581751  1.942504  -23.750184  10.661248  -8.12713  -15.351103  12.988418  17.83736  10.082721  3.819181  -0.457813  4.804053  -1.288577  2.423203  13.001396  -3.982485  6.345019  13.001396  -3.982485  6.345018  -11.44413  0.197553  -6.793014  170.618472  30.907595  -143.362495  0.8564  -19.896307  47.732838  103.021048  -3.77486  31.174773  -0.663358  -10.323269  11.410659  98.050515  29.346262  25.177154  4.531926  -24.448886  -91.54521  50.519868  -7.123257  -18.344495  -29.719313  3.049569  -1.270251  -22.277997  2.355647  -0.806104  
0.0  89.887642  0.0  2.504885  -8.749563  -98.633836  -1.322975  -12.99386  -0.080475  4.463305  6.06567  28.054655  -1.250406  0.471901  1.806329  -20.445479  10.026024  -9.927966  -13.28616  13.489521  19.737043  10.298896  3.83812  -0.261218  4.820163  -1.129249  2.423288  13.05846  -3.550845  6.374531  13.05846  -3.550845  6.374532  -9.715433  1.277826  -4.071048  178.620533  28.502631  -145.736834  -6.734102  -17.011147  57.835458  99.642846  -2.69531  33.471939  -2.821477  -9.774176  12.694059  97.622515  29.434678  26.175166  2.057558  -21.672749  -91.153897  54.837591  -5.841998  -19.998964  -27.004105  3.516758  -1.078705  -20.240575  2.691516  -0.65455  
0.0  89.887642  0.0  3.218653  -13.782772  -99.001233  -0.958626  -12.661947  0.990637  6.232203  6.132612  28.325444  -1.386377  0.364941  1.575361  -17.072045  9.519385  -11.341587  -11.008466  13.609203  21.301205  10.497385  3.684722  0.052572  4.648873  -0.843525  2.498647  12.611177  -2.772074  6.642526  12.611177  -2.772074  6.642526  -7.211973  1.957479  -2.188821  -174.571583  27.078498  -150.423813  -15.637476  -9.675502  67.916174  94.851999  -1.842064  34.605673  -4.022599  -9.178002  13.475763  96.157378  29.615128  26.961527  -1.775866  -17.497692  -90.427933  61.589097  -3.555645  -21.541602  -23.410028  3.455621  -1.111121  -17.545977  2.6389  -0.701687  
0.0  89.887642  0.0  3.906662  -19.088201  -99.332559  -0.56036  -12.305514  1.993676  8.206936  6.163614  28.642275  -1.394427  0.287811  1.21916  -12.941756  9.280554  -12.459265  -9.706968  13.498269  22.3782  10.672959  3.327501  0.405274  4.447717  -0.420773  2.396118  12.10406  -1.583769  6.447995  12.10406  -1.583769  6.447995  -4.482076  2.144431  0.333188  -170.332814  26.254729  -156.909336  -24.382542  1.151586  75.875306  88.300003  1.618313  33.696535  -4.904067  -8.964501  15.034481  93.121676  30.219493  27.217587  -6.362814  -11.21872  -90.31593  55.818313  2.2564  -22.929689  -19.395478  2.884655  -0.605672  -14.540689  2.185332  -0.362922  
0.0  89.887642  0.0  4.541261  -24.514318  -100.050555  -0.048744  -11.974203  3.255623  10.333776  6.153367  29.071741  -1.053504  0.30033  0.870014  -9.398667  9.12964  -13.588459  -8.968448  13.581842  23.341052  11.002861  3.119109  0.549833  4.314007  -0.308826  2.080098  11.756489  -1.2104  5.610551  11.756489  -1.2104  5.610551  -2.144021  3.565998  5.352949  -167.431428  24.962453  -161.674282  -28.780704  9.69352  79.362009  95.78984  -1.607916  35.858007  -6.688212  -6.628777  18.350307  88.795843  31.157525  26.71697  -8.759997  -8.609004  -91.34032  66.251989  -6.954056  -25.502609  -15.668515  3.072136  0.489584  -11.751035  2.293338  0.446308  
0.0  89.887642  0.0  5.510474  -27.206933  -101.670511  -1.732288  -10.874448  5.063278  12.042875  6.751521  29.055936  0.313342  0.046254  0.999593  -10.983729  9.77089  -13.343165  -6.861414  13.112984  22.766357  10.917009  2.745639  0.845554  3.977157  -0.190252  1.831024  10.850082  -0.818503  4.958371  10.850083  -0.818503  4.958371  -0.580371  4.603575  8.83485  -168.792164  22.615194  -168.465709  -33.304627  14.640189  81.09663  89.289146  -2.187558  35.853598  -9.275106  -4.19677  21.707684  84.344404  32.794964  26.477317  -11.533098  -3.535532  -87.652133  76.279785  -2.775997  -22.387578  -12.785414  2.861539  1.877236  -9.595961  2.108  1.468318  
0.0  89.887642  0.0  6.139042  -28.916126  -102.732443  -3.00199  -9.734357  6.226195  13.919248  6.363141  29.372724  1.105603  0.188964  0.71378  -13.974685  10.787491  -13.435187  -5.987446  12.490529  22.1731  12.087331  2.719019  0.753752  3.604423  -0.030581  1.623565  9.845237  -0.324848  4.422009  9.845237  -0.324848  4.422009  0.170736  4.637475  13.498576  -170.808457  17.055706  -173.101468  -35.468309  15.079442  91.081865  70.740094  9.872628  31.952951  -11.287316  -2.361578  24.45136  79.558793  35.875123  26.875522  -14.15908  3.204914  -84.004918  84.564855  -4.208642  -15.009165  -10.476173  2.117683  2.975806  -7.866766  1.537829  2.26871  
0.0  89.887642  0.0  6.18876  -30.402895  -103.766487  -2.363464  -9.047784  7.776368  14.518315  5.799621  29.03543  1.88416  0.340714  0.807562  -16.95132  11.579201  -12.227965  -4.661864  11.369331  21.150094  13.023696  2.759274  0.570992  3.190648  0.018651  1.518145  8.718548  -0.149127  4.143862  8.718548  -0.149127  4.143862  2.042777  5.276296  17.159987  -173.191833  13.01133  -175.786045  -43.636893  18.381686  87.524309  66.067508  5.944815  47.699437  -11.98974  -1.257525  26.385941  74.310141  38.985097  27.334912  -15.364465  10.870374  -78.478604  88.646872  -7.371264  -10.662855  -8.32795  1.405152  3.755709  -6.254564  1.002949  2.836418  
0.0  89.887642  0.0  5.443405  -31.955581  -103.982318  0.84704  -9.995801  8.846465  13.38597  5.818268  28.789259  1.945377  0.358559  0.919311  -19.742293  11.54418  -10.725644  -2.659122  9.931281  19.79357  13.935701  2.518055  0.241142  3.043712  0.026147  1.293374  8.318347  -0.091239  3.532163  8.318347  -0.091239  3.532163  3.149098  5.193619  20.13657  -173.812087  12.609315  -178.605896  -50.892616  22.39879  85.41832  63.286852  -4.023063  46.813322  -12.727418  -1.765146  27.54621  70.294462  42.211086  28.72584  -12.71908  17.18126  -70.203992  88.661604  -11.177427  -8.593501  -7.198091  0.523958  4.743894  -5.402983  0.337169  3.564653  
0.0  89.887642  0.0  6.136579  -33.147322  -104.830596  5.508995  -10.521967  9.456454  11.303277  6.392898  29.143188  1.390228  0.162024  1.054359  -20.022214  12.263452  -9.475217  -2.485812  8.423789  18.285339  14.061713  2.396105  0.356693  3.031586  0.289961  1.425362  8.300541  0.612399  3.925464  8.300541  0.612399  3.925463  2.418306  4.75605  19.92565  -173.196031  14.265502  178.749449  -52.586934  33.861124  83.109078  63.68567  0.894582  38.881485  -13.806493  -4.111482  23.10925  73.41954  43.439402  34.378429  -6.562316  18.764278  -57.124373  90.935379  -12.773722  -6.806094  -6.584199  -0.391704  4.637728  -4.935495  -0.343817  3.474541  
0.0  89.887642  0.0  7.495308  -34.764339  -106.166  10.661079  -11.252821  9.660528  9.097385  7.245615  30.361352  -0.066328  -0.301974  1.53869  -17.358008  12.638923  -8.270753  -4.689266  7.332386  18.362318  14.488495  4.084957  -0.672188  2.953982  0.349962  1.586504  8.093711  0.760949  4.372003  8.093711  0.760949  4.372003  2.718212  5.821832  19.492748  -175.393769  14.340761  178.052529  -59.317938  40.498687  76.409068  55.587546  7.390962  30.848452  -13.693312  -6.022245  19.026224  79.518575  46.892725  39.890412  3.613018  15.075884  -39.724781  95.441814  -11.457639  -5.641234  -5.37642  0.070897  4.570138  -4.033112  0.012967  3.428542  
0.0  89.887642  0.0  8.66618  -35.570126  -107.567839  12.830921  -12.01021  9.219268  8.006743  8.457774  33.593968  -1.32109  -0.71813  1.195201  -12.718888  12.902009  -9.647244  -8.150941  9.835491  21.468972  15.221836  3.838871  -0.873988  2.835652  0.280048  1.641891  7.766057  0.571604  4.513766  7.766057  0.571604  4.513766  2.732458  7.125255  19.634976  -178.056846  14.14409  177.913518  -70.530558  45.643321  66.057917  48.586599  10.920658  25.521991  -10.417796  -2.118361  21.795967  77.303161  52.046119  35.63381  12.517334  9.483182  -23.608219  100.743446  -10.035729  -1.828074  -4.25998  1.205492  4.901389  -3.20478  0.87007  3.684522  
0.0  89.887642  0.0  9.619012  -35.866809  -110.098758  11.795986  -11.870605  9.01207  7.500168  9.458423  37.466223  -0.855035  -0.288012  0.825576  -9.127608  12.387026  -7.387091  -8.077597  11.502554  21.563015  13.331204  3.237018  0.631048  2.890334  0.170024  1.922204  7.908243  0.234257  5.265851  7.908243  0.234257  5.265851  1.631304  7.968886  19.21471  -179.380297  14.562238  178.419717  -79.517138  48.59728  56.933716  48.960236  13.453341  23.913807  -8.572487  -1.831335  27.013091  91.397292  55.156544  44.605469  8.270457  4.189622  -6.827443  111.330897  -7.611855  0.819443  -3.682726  2.106545  4.906194  -2.778863  1.550533  3.692088  
0.0  89.887642  0.0  9.154026  -35.86022  -111.018572  8.021303  -11.400662  7.992724  8.471428  10.581863  40.429821  1.0595  0.463934  1.054987  -8.703816  11.985726  -6.742379  -6.2716  11.324234  23.21403  13.759916  2.728431  0.347358  2.894502  -0.136196  2.045062  7.894016  -0.61575  5.564628  7.894016  -0.61575  5.564628  1.266402  8.763909  19.103002  -179.77498  15.71369  178.716959  -81.51707  48.1625  52.496472  51.769493  13.291426  23.22725  -4.13753  -4.912144  33.762663  101.731116  57.249234  59.500316  7.787249  6.648068  2.911837  109.897345  -6.54489  0.103293  -3.144311  3.335419  5.29823  -2.386724  2.474612  3.98985  
0.0  89.887642  0.0  8.333973  -35.900643  -110.771948  3.564098  -10.151408  7.331034  11.173588  10.520761  41.812116  2.742789  1.171954  0.865751  -11.876023  12.135033  -8.340726  -3.369131  10.203485  25.922439  14.35976  3.445027  0.105547  2.829943  -0.511967  2.108362  7.685423  -1.642377  5.695128  7.685423  -1.642377  5.695129  0.852687  9.944237  18.211416  -179.357163  16.253013  178.015786  -77.824523  46.651836  54.144413  52.35143  11.057356  23.70741  -3.959658  -4.453179  33.554422  105.919209  56.898465  68.171521  8.3976  6.402909  4.102047  99.037402  -5.846992  -3.041681  -2.583609  4.680779  5.490759  -1.978954  3.487796  4.135687  
